<?xml version="1.0" standalone="no"?>
<!DOCTYPE svg PUBLIC "-//W3C//DTD SVG 20010904//EN"
 "http://www.w3.org/TR/2001/REC-SVG-20010904/DTD/svg10.dtd">
<svg version="1.0" xmlns="http://www.w3.org/2000/svg"
 width="512.000000pt" height="512.000000pt" viewBox="0 0 512.000000 512.000000"
 preserveAspectRatio="xMidYMid meet">
<metadata>
Created by potrace 1.11, written by Peter Selinger 2001-2013
</metadata>
<g transform="translate(0.000000,512.000000) scale(0.100000,-0.100000)"
fill="#000000" stroke="none">
<path d="M2532 5102 c-10 -10 -37 -54 -61 -97 -82 -150 -102 -166 -249 -191
-127 -22 -125 -22 -144 -29 -27 -11 -22 -47 10 -81 104 -107 150 -166 160
-204 12 -47 24 -28 -146 -230 -44 -52 -126 -140 -182 -195 -134 -131 -150
-170 -88 -213 18 -13 18 -15 -5 -38 -38 -38 -40 -72 -7 -106 16 -15 36 -28 44
-28 9 0 16 -6 16 -13 0 -13 -141 -162 -216 -228 -54 -48 -100 -108 -108 -141
-8 -37 32 -83 93 -104 l47 -17 -54 -51 c-80 -75 -103 -130 -74 -174 15 -23 13
-25 -39 -74 -212 -196 -243 -245 -198 -316 17 -27 73 -58 131 -72 45 -12 60
-24 38 -32 -5 -1 -42 -34 -81 -73 -83 -81 -116 -141 -101 -184 10 -27 6 -32
-86 -117 -233 -215 -265 -254 -265 -330 0 -58 31 -98 104 -131 32 -16 59 -34
59 -40 0 -7 -3 -13 -7 -13 -16 0 -61 -87 -73 -139 -18 -75 -53 -123 -172 -232
-183 -168 -214 -202 -254 -281 -30 -60 -29 -123 3 -167 59 -79 275 -122 504
-100 41 4 106 10 144 13 75 7 116 12 180 21 22 3 63 8 90 11 28 2 61 6 75 9
14 2 48 7 75 11 28 3 58 8 68 10 10 2 46 6 80 9 34 3 78 7 97 10 19 2 59 7 88
11 l54 6 -6 -29 c-3 -15 -8 -53 -11 -83 -3 -30 -7 -71 -10 -90 -22 -181 -22
-232 2 -305 40 -124 130 -198 294 -242 90 -24 329 -24 419 0 185 50 285 148
307 298 4 30 7 61 6 69 -2 43 -14 158 -18 175 -2 11 -7 52 -10 90 -4 39 -8 80
-10 93 -4 22 -2 23 53 17 31 -3 71 -8 87 -10 17 -3 55 -7 85 -10 30 -3 64 -7
75 -9 11 -2 47 -7 80 -11 32 -4 67 -8 77 -10 9 -2 43 -6 75 -10 32 -3 69 -7
83 -10 14 -2 50 -7 80 -11 30 -3 66 -8 80 -9 78 -10 248 -19 330 -17 229 3
370 73 370 182 0 86 -72 183 -273 365 -55 49 -113 110 -130 135 -17 25 -75 88
-129 140 -54 53 -98 99 -98 102 0 3 21 9 48 13 64 9 167 59 190 93 28 41 32
68 16 123 -16 54 -54 96 -250 278 -98 90 -101 95 -93 124 16 57 -24 114 -173
250 l-27 25 39 6 c97 15 175 84 164 144 -11 58 -31 82 -213 249 l-54 49 17 32
c9 17 16 35 15 39 -5 29 -45 86 -92 131 -31 28 -50 52 -43 52 6 0 35 12 64 26
45 22 63 43 67 79 3 24 -38 86 -91 136 -71 67 -157 153 -207 206 l-39 41 39
18 c51 26 67 58 46 98 -9 16 -22 37 -31 45 -13 13 -12 16 6 24 31 14 42 48 27
83 -7 16 -52 67 -100 114 -89 86 -209 217 -255 279 -14 19 -33 43 -44 55 -64
73 -69 84 -55 118 7 18 49 70 94 116 133 138 133 140 -70 178 -134 25 -167 51
-236 185 -69 133 -82 146 -117 111z"/>
</g>
</svg>
